<?xml version="1.0" encoding="utf-8" ?>
<svg baseProfile="full" height="220" version="1.1" width="900" xmlns="http://www.w3.org/2000/svg" xmlns:ev="http://www.w3.org/2001/xml-events" xmlns:xlink="http://www.w3.org/1999/xlink"><defs /><rect fill="#0d1117" height="100%" width="100%" x="0" y="0" /><text fill="#58a6ff" font-size="28px" x="30" y="35">GitHub Mario Engine</text><rect fill="#8B4513" height="20" stroke="#5a2e0c" stroke-width="1" width="20" x="0" y="190" /><rect fill="#8B4513" height="20" stroke="#5a2e0c" stroke-width="1" width="20" x="20" y="190" /><rect fill="#8B4513" height="20" stroke="#5a2e0c" stroke-width="1" width="20" x="40" y="190" /><rect fill="#8B4513" height="20" stroke="#5a2e0c" stroke-width="1" width="20" x="60" y="190" /><rect fill="#8B4513" height="20" stroke="#5a2e0c" stroke-width="1" width="20" x="80" y="190" /><rect fill="#8B4513" height="20" stroke="#5a2e0c" stroke-width="1" width="20" x="100" y="190" /><rect fill="#8B4513" height="20" stroke="#5a2e0c" stroke-width="1" width="20" x="120" y="190" /><rect fill="#8B4513" height="20" stroke="#5a2e0c" stroke-width="1" width="20" x="140" y="190" /><rect fill="#8B4513" height="20" stroke="#5a2e0c" stroke-width="1" width="20" x="160" y="190" /><rect fill="#8B4513" height="20" stroke="#5a2e0c" stroke-width="1" width="20" x="180" y="190" /><rect fill="#8B4513" height="20" stroke="#5a2e0c" stroke-width="1" width="20" x="200" y="190" /><rect fill="#8B4513" height="20" stroke="#5a2e0c" stroke-width="1" width="20" x="220" y="190" /><rect fill="#8B4513" height="20" stroke="#5a2e0c" stroke-width="1" width="20" x="240" y="190" /><rect fill="#8B4513" height="20" stroke="#5a2e0c" stroke-width="1" width="20" x="260" y="190" /><rect fill="#8B4513" height="20" stroke="#5a2e0c" stroke-width="1" width="20" x="280" y="190" /><rect fill="#8B4513" height="20" stroke="#5a2e0c" stroke-width="1" width="20" x="300" y="190" /><rect fill="#8B4513" height="20" stroke="#5a2e0c" stroke-width="1" width="20" x="320" y="190" /><rect fill="#8B4513" height="20" stroke="#5a2e0c" stroke-width="1" width="20" x="340" y="190" /><rect fill="#8B4513" height="20" stroke="#5a2e0c" stroke-width="1" width="20" x="360" y="190" /><rect fill="#8B4513" height="20" stroke="#5a2e0c" stroke-width="1" width="20" x="380" y="190" /><rect fill="#8B4513" height="20" stroke="#5a2e0c" stroke-width="1" width="20" x="400" y="190" /><rect fill="#8B4513" height="20" stroke="#5a2e0c" stroke-width="1" width="20" x="420" y="190" /><rect fill="#8B4513" height="20" stroke="#5a2e0c" stroke-width="1" width="20" x="440" y="190" /><rect fill="#8B4513" height="20" stroke="#5a2e0c" stroke-width="1" width="20" x="460" y="190" /><rect fill="#8B4513" height="20" stroke="#5a2e0c" stroke-width="1" width="20" x="480" y="190" /><rect fill="#8B4513" height="20" stroke="#5a2e0c" stroke-width="1" width="20" x="500" y="190" /><rect fill="#8B4513" height="20" stroke="#5a2e0c" stroke-width="1" width="20" x="520" y="190" /><rect fill="#8B4513" height="20" stroke="#5a2e0c" stroke-width="1" width="20" x="540" y="190" /><rect fill="#8B4513" height="20" stroke="#5a2e0c" stroke-width="1" width="20" x="560" y="190" /><rect fill="#8B4513" height="20" stroke="#5a2e0c" stroke-width="1" width="20" x="580" y="190" /><rect fill="#8B4513" height="20" stroke="#5a2e0c" stroke-width="1" width="20" x="600" y="190" /><rect fill="#8B4513" height="20" stroke="#5a2e0c" stroke-width="1" width="20" x="620" y="190" /><rect fill="#8B4513" height="20" stroke="#5a2e0c" stroke-width="1" width="20" x="640" y="190" /><rect fill="#8B4513" height="20" stroke="#5a2e0c" stroke-width="1" width="20" x="660" y="190" /><rect fill="#8B4513" height="20" stroke="#5a2e0c" stroke-width="1" width="20" x="680" y="190" /><rect fill="#8B4513" height="20" stroke="#5a2e0c" stroke-width="1" width="20" x="700" y="190" /><rect fill="#8B4513" height="20" stroke="#5a2e0c" stroke-width="1" width="20" x="720" y="190" /><rect fill="#8B4513" height="20" stroke="#5a2e0c" stroke-width="1" width="20" x="740" y="190" /><rect fill="#8B4513" height="20" stroke="#5a2e0c" stroke-width="1" width="20" x="760" y="190" /><rect fill="#8B4513" height="20" stroke="#5a2e0c" stroke-width="1" width="20" x="780" y="190" /><rect fill="#8B4513" height="20" stroke="#5a2e0c" stroke-width="1" width="20" x="800" y="190" /><rect fill="#8B4513" height="20" stroke="#5a2e0c" stroke-width="1" width="20" x="820" y="190" /><rect fill="#8B4513" height="20" stroke="#5a2e0c" stroke-width="1" width="20" x="840" y="190" /><rect fill="#8B4513" height="20" stroke="#5a2e0c" stroke-width="1" width="20" x="860" y="190" /><rect fill="#8B4513" height="20" stroke="#5a2e0c" stroke-width="1" width="20" x="880" y="190" /><rect fill="#ff0000" height="4" width="4" x="100" y="95" /><rect fill="#ff0000" height="4" width="4" x="104" y="95" /><rect fill="#ff0000" height="4" width="4" x="108" y="95" /><rect fill="#ff0000" height="4" width="4" x="112" y="95" /><rect fill="#ff0000" height="4" width="4" x="96" y="99" /><rect fill="#ffd37f" height="4" width="4" x="100" y="99" /><rect fill="#ffd37f" height="4" width="4" x="104" y="99" /><rect fill="#ffd37f" height="4" width="4" x="108" y="99" /><rect fill="#ffd37f" height="4" width="4" x="112" y="99" /><rect fill="#ff0000" height="4" width="4" x="116" y="99" /><rect fill="#ff0000" height="4" width="4" x="92" y="103" /><rect fill="#ffd37f" height="4" width="4" x="96" y="103" /><rect fill="#ffd37f" height="4" width="4" x="100" y="103" /><rect fill="#ffd37f" height="4" width="4" x="104" y="103" /><rect fill="#ff0000" height="4" width="4" x="108" y="103" /><rect fill="#ffd37f" height="4" width="4" x="112" y="103" /><rect fill="#ffd37f" height="4" width="4" x="116" y="103" /><rect fill="#ff0000" height="4" width="4" x="120" y="103" /><rect fill="#ff0000" height="4" width="4" x="92" y="107" /><rect fill="#ffd37f" height="4" width="4" x="96" y="107" /><rect fill="#ffd37f" height="4" width="4" x="100" y="107" /><rect fill="#ffd37f" height="4" width="4" x="104" y="107" /><rect fill="#ffd37f" height="4" width="4" x="108" y="107" /><rect fill="#ffd37f" height="4" width="4" x="112" y="107" /><rect fill="#ffd37f" height="4" width="4" x="116" y="107" /><rect fill="#ff0000" height="4" width="4" x="120" y="107" /><rect fill="#ff0000" height="4" width="4" x="96" y="111" /><rect fill="#ff0000" height="4" width="4" x="100" y="111" /><rect fill="#8b4513" height="4" width="4" x="104" y="111" /><rect fill="#8b4513" height="4" width="4" x="108" y="111" /><rect fill="#ff0000" height="4" width="4" x="112" y="111" /><rect fill="#ff0000" height="4" width="4" x="116" y="111" /><rect fill="#ff0000" height="4" width="4" x="92" y="115" /><rect fill="#ff0000" height="4" width="4" x="96" y="115" /><rect fill="#0000ff" height="4" width="4" x="100" y="115" /><rect fill="#0000ff" height="4" width="4" x="104" y="115" /><rect fill="#0000ff" height="4" width="4" x="108" y="115" /><rect fill="#0000ff" height="4" width="4" x="112" y="115" /><rect fill="#ff0000" height="4" width="4" x="116" y="115" /><rect fill="#ff0000" height="4" width="4" x="120" y="115" /><rect fill="#ff0000" height="4" width="4" x="88" y="119" /><rect fill="#ff0000" height="4" width="4" x="92" y="119" /><rect fill="#0000ff" height="4" width="4" x="96" y="119" /><rect fill="#0000ff" height="4" width="4" x="100" y="119" /><rect fill="#0000ff" height="4" width="4" x="104" y="119" /><rect fill="#0000ff" height="4" width="4" x="108" y="119" /><rect fill="#0000ff" height="4" width="4" x="112" y="119" /><rect fill="#0000ff" height="4" width="4" x="116" y="119" /><rect fill="#0000ff" height="4" width="4" x="120" y="119" /><rect fill="#ff0000" height="4" width="4" x="124" y="119" /><rect fill="#ff0000" height="4" width="4" x="88" y="123" /><rect fill="#ff0000" height="4" width="4" x="92" y="123" /><rect fill="#ff0000" height="4" width="4" x="96" y="123" /><rect fill="#0000ff" height="4" width="4" x="100" y="123" /><rect fill="#0000ff" height="4" width="4" x="108" y="123" /><rect fill="#0000ff" height="4" width="4" x="116" y="123" /><rect fill="#ff0000" height="4" width="4" x="120" y="123" /><rect fill="#ff0000" height="4" width="4" x="124" y="123" /><rect fill="#ff0000" height="4" width="4" x="92" y="127" /><rect fill="#ff0000" height="4" width="4" x="96" y="127" /><rect fill="#ff0000" height="4" width="4" x="108" y="127" /><rect fill="#ff0000" height="4" width="4" x="112" y="127" /><rect fill="#ff0000" height="4" width="4" x="88" y="131" /><rect fill="#ff0000" height="4" width="4" x="92" y="131" /><rect fill="#ff0000" height="4" width="4" x="116" y="131" /><rect fill="#ff0000" height="4" width="4" x="120" y="131" /><rect fill="#B5651D" height="4" width="4" x="150" y="70" /><rect fill="#B5651D" height="4" width="4" x="154" y="70" /><rect fill="#B5651D" height="4" width="4" x="158" y="70" /><rect fill="#B5651D" height="4" width="4" x="162" y="70" /><rect fill="#B5651D" height="4" width="4" x="166" y="70" /><rect fill="#B5651D" height="4" width="4" x="170" y="70" /><rect fill="#B5651D" height="4" width="4" x="150" y="74" /><rect fill="#8B4513" height="4" width="4" x="154" y="74" /><rect fill="#8B4513" height="4" width="4" x="158" y="74" /><rect fill="#8B4513" height="4" width="4" x="162" y="74" /><rect fill="#8B4513" height="4" width="4" x="166" y="74" /><rect fill="#B5651D" height="4" width="4" x="170" y="74" /><rect fill="#B5651D" height="4" width="4" x="150" y="78" /><rect fill="#8B4513" height="4" width="4" x="154" y="78" /><rect fill="#B5651D" height="4" width="4" x="158" y="78" /><rect fill="#B5651D" height="4" width="4" x="162" y="78" /><rect fill="#8B4513" height="4" width="4" x="166" y="78" /><rect fill="#B5651D" height="4" width="4" x="170" y="78" /><rect fill="#B5651D" height="4" width="4" x="150" y="82" /><rect fill="#8B4513" height="4" width="4" x="154" y="82" /><rect fill="#8B4513" height="4" width="4" x="158" y="82" /><rect fill="#8B4513" height="4" width="4" x="162" y="82" /><rect fill="#8B4513" height="4" width="4" x="166" y="82" /><rect fill="#B5651D" height="4" width="4" x="170" y="82" /><rect fill="#B5651D" height="4" width="4" x="150" y="86" /><rect fill="#8B4513" height="4" width="4" x="154" y="86" /><rect fill="#B5651D" height="4" width="4" x="158" y="86" /><rect fill="#B5651D" height="4" width="4" x="162" y="86" /><rect fill="#8B4513" height="4" width="4" x="166" y="86" /><rect fill="#B5651D" height="4" width="4" x="170" y="86" /><rect fill="#B5651D" height="4" width="4" x="150" y="90" /><rect fill="#B5651D" height="4" width="4" x="154" y="90" /><rect fill="#B5651D" height="4" width="4" x="158" y="90" /><rect fill="#B5651D" height="4" width="4" x="162" y="90" /><rect fill="#B5651D" height="4" width="4" x="166" y="90" /><rect fill="#B5651D" height="4" width="4" x="170" y="90" /><rect fill="#B5651D" height="4" width="4" x="174" y="70" /><rect fill="#B5651D" height="4" width="4" x="178" y="70" /><rect fill="#B5651D" height="4" width="4" x="182" y="70" /><rect fill="#B5651D" height="4" width="4" x="186" y="70" /><rect fill="#B5651D" height="4" width="4" x="190" y="70" /><rect fill="#B5651D" height="4" width="4" x="194" y="70" /><rect fill="#B5651D" height="4" width="4" x="174" y="74" /><rect fill="#8B4513" height="4" width="4" x="178" y="74" /><rect fill="#8B4513" height="4" width="4" x="182" y="74" /><rect fill="#8B4513" height="4" width="4" x="186" y="74" /><rect fill="#8B4513" height="4" width="4" x="190" y="74" /><rect fill="#B5651D" height="4" width="4" x="194" y="74" /><rect fill="#B5651D" height="4" width="4" x="174" y="78" /><rect fill="#8B4513" height="4" width="4" x="178" y="78" /><rect fill="#B5651D" height="4" width="4" x="182" y="78" /><rect fill="#B5651D" height="4" width="4" x="186" y="78" /><rect fill="#8B4513" height="4" width="4" x="190" y="78" /><rect fill="#B5651D" height="4" width="4" x="194" y="78" /><rect fill="#B5651D" height="4" width="4" x="174" y="82" /><rect fill="#8B4513" height="4" width="4" x="178" y="82" /><rect fill="#8B4513" height="4" width="4" x="182" y="82" /><rect fill="#8B4513" height="4" width="4" x="186" y="82" /><rect fill="#8B4513" height="4" width="4" x="190" y="82" /><rect fill="#B5651D" height="4" width="4" x="194" y="82" /><rect fill="#B5651D" height="4" width="4" x="174" y="86" /><rect fill="#8B4513" height="4" width="4" x="178" y="86" /><rect fill="#B5651D" height="4" width="4" x="182" y="86" /><rect fill="#B5651D" height="4" width="4" x="186" y="86" /><rect fill="#8B4513" height="4" width="4" x="190" y="86" /><rect fill="#B5651D" height="4" width="4" x="194" y="86" /><rect fill="#B5651D" height="4" width="4" x="174" y="90" /><rect fill="#B5651D" height="4" width="4" x="178" y="90" /><rect fill="#B5651D" height="4" width="4" x="182" y="90" /><rect fill="#B5651D" height="4" width="4" x="186" y="90" /><rect fill="#B5651D" height="4" width="4" x="190" y="90" /><rect fill="#B5651D" height="4" width="4" x="194" y="90" /><rect fill="#B5651D" height="4" width="4" x="198" y="70" /><rect fill="#B5651D" height="4" width="4" x="202" y="70" /><rect fill="#B5651D" height="4" width="4" x="206" y="70" /><rect fill="#B5651D" height="4" width="4" x="210" y="70" /><rect fill="#B5651D" height="4" width="4" x="214" y="70" /><rect fill="#B5651D" height="4" width="4" x="218" y="70" /><rect fill="#B5651D" height="4" width="4" x="198" y="74" /><rect fill="#8B4513" height="4" width="4" x="202" y="74" /><rect fill="#8B4513" height="4" width="4" x="206" y="74" /><rect fill="#8B4513" height="4" width="4" x="210" y="74" /><rect fill="#8B4513" height="4" width="4" x="214" y="74" /><rect fill="#B5651D" height="4" width="4" x="218" y="74" /><rect fill="#B5651D" height="4" width="4" x="198" y="78" /><rect fill="#8B4513" height="4" width="4" x="202" y="78" /><rect fill="#B5651D" height="4" width="4" x="206" y="78" /><rect fill="#B5651D" height="4" width="4" x="210" y="78" /><rect fill="#8B4513" height="4" width="4" x="214" y="78" /><rect fill="#B5651D" height="4" width="4" x="218" y="78" /><rect fill="#B5651D" height="4" width="4" x="198" y="82" /><rect fill="#8B4513" height="4" width="4" x="202" y="82" /><rect fill="#8B4513" height="4" width="4" x="206" y="82" /><rect fill="#8B4513" height="4" width="4" x="210" y="82" /><rect fill="#8B4513" height="4" width="4" x="214" y="82" /><rect fill="#B5651D" height="4" width="4" x="218" y="82" /><rect fill="#B5651D" height="4" width="4" x="198" y="86" /><rect fill="#8B4513" height="4" width="4" x="202" y="86" /><rect fill="#B5651D" height="4" width="4" x="206" y="86" /><rect fill="#B5651D" height="4" width="4" x="210" y="86" /><rect fill="#8B4513" height="4" width="4" x="214" y="86" /><rect fill="#B5651D" height="4" width="4" x="218" y="86" /><rect fill="#B5651D" height="4" width="4" x="198" y="90" /><rect fill="#B5651D" height="4" width="4" x="202" y="90" /><rect fill="#B5651D" height="4" width="4" x="206" y="90" /><rect fill="#B5651D" height="4" width="4" x="210" y="90" /><rect fill="#B5651D" height="4" width="4" x="214" y="90" /><rect fill="#B5651D" height="4" width="4" x="218" y="90" /><rect fill="#FFD700" height="4" width="4" x="188" y="100" /><rect fill="#FFD700" height="4" width="4" x="192" y="100" /><rect fill="#FFD700" height="4" width="4" x="184" y="104" /><rect fill="#FFD700" height="4" width="4" x="188" y="104" /><rect fill="#FFD700" height="4" width="4" x="192" y="104" /><rect fill="#FFD700" height="4" width="4" x="196" y="104" /><rect fill="#FFD700" height="4" width="4" x="180" y="108" /><rect fill="#FFD700" height="4" width="4" x="184" y="108" /><rect fill="#FFD700" height="4" width="4" x="196" y="108" /><rect fill="#FFD700" height="4" width="4" x="200" y="108" /><rect fill="#FFD700" height="4" width="4" x="180" y="112" /><rect fill="#FFD700" height="4" width="4" x="184" y="112" /><rect fill="#FFD700" height="4" width="4" x="196" y="112" /><rect fill="#FFD700" height="4" width="4" x="200" y="112" /><rect fill="#FFD700" height="4" width="4" x="184" y="116" /><rect fill="#FFD700" height="4" width="4" x="188" y="116" /><rect fill="#FFD700" height="4" width="4" x="192" y="116" /><rect fill="#FFD700" height="4" width="4" x="196" y="116" /><rect fill="#FFD700" height="4" width="4" x="188" y="120" /><rect fill="#FFD700" height="4" width="4" x="192" y="120" /><rect fill="#FFD700" height="4" width="4" x="228" y="100" /><rect fill="#FFD700" height="4" width="4" x="232" y="100" /><rect fill="#FFD700" height="4" width="4" x="224" y="104" /><rect fill="#FFD700" height="4" width="4" x="228" y="104" /><rect fill="#FFD700" height="4" width="4" x="232" y="104" /><rect fill="#FFD700" height="4" width="4" x="236" y="104" /><rect fill="#FFD700" height="4" width="4" x="220" y="108" /><rect fill="#FFD700" height="4" width="4" x="224" y="108" /><rect fill="#FFD700" height="4" width="4" x="236" y="108" /><rect fill="#FFD700" height="4" width="4" x="240" y="108" /><rect fill="#FFD700" height="4" width="4" x="220" y="112" /><rect fill="#FFD700" height="4" width="4" x="224" y="112" /><rect fill="#FFD700" height="4" width="4" x="236" y="112" /><rect fill="#FFD700" height="4" width="4" x="240" y="112" /><rect fill="#FFD700" height="4" width="4" x="224" y="116" /><rect fill="#FFD700" height="4" width="4" x="228" y="116" /><rect fill="#FFD700" height="4" width="4" x="232" y="116" /><rect fill="#FFD700" height="4" width="4" x="236" y="116" /><rect fill="#FFD700" height="4" width="4" x="228" y="120" /><rect fill="#FFD700" height="4" width="4" x="232" y="120" /><rect fill="#FFD700" height="4" width="4" x="268" y="100" /><rect fill="#FFD700" height="4" width="4" x="272" y="100" /><rect fill="#FFD700" height="4" width="4" x="264" y="104" /><rect fill="#FFD700" height="4" width="4" x="268" y="104" /><rect fill="#FFD700" height="4" width="4" x="272" y="104" /><rect fill="#FFD700" height="4" width="4" x="276" y="104" /><rect fill="#FFD700" height="4" width="4" x="260" y="108" /><rect fill="#FFD700" height="4" width="4" x="264" y="108" /><rect fill="#FFD700" height="4" width="4" x="276" y="108" /><rect fill="#FFD700" height="4" width="4" x="280" y="108" /><rect fill="#FFD700" height="4" width="4" x="260" y="112" /><rect fill="#FFD700" height="4" width="4" x="264" y="112" /><rect fill="#FFD700" height="4" width="4" x="276" y="112" /><rect fill="#FFD700" height="4" width="4" x="280" y="112" /><rect fill="#FFD700" height="4" width="4" x="264" y="116" /><rect fill="#FFD700" height="4" width="4" x="268" y="116" /><rect fill="#FFD700" height="4" width="4" x="272" y="116" /><rect fill="#FFD700" height="4" width="4" x="276" y="116" /><rect fill="#FFD700" height="4" width="4" x="268" y="120" /><rect fill="#FFD700" height="4" width="4" x="272" y="120" /><rect fill="#8B4513" height="4" width="4" x="348" y="138" /><rect fill="#8B4513" height="4" width="4" x="352" y="138" /><rect fill="#8B4513" height="4" width="4" x="356" y="138" /><rect fill="#8B4513" height="4" width="4" x="360" y="138" /><rect fill="#8B4513" height="4" width="4" x="344" y="142" /><rect fill="#8B4513" height="4" width="4" x="348" y="142" /><rect fill="#8B4513" height="4" width="4" x="352" y="142" /><rect fill="#8B4513" height="4" width="4" x="356" y="142" /><rect fill="#8B4513" height="4" width="4" x="360" y="142" /><rect fill="#8B4513" height="4" width="4" x="364" y="142" /><rect fill="#8B4513" height="4" width="4" x="340" y="146" /><rect fill="#8B4513" height="4" width="4" x="344" y="146" /><rect fill="#8B4513" height="4" width="4" x="348" y="146" /><rect fill="#8B4513" height="4" width="4" x="352" y="146" /><rect fill="#8B4513" height="4" width="4" x="356" y="146" /><rect fill="#8B4513" height="4" width="4" x="360" y="146" /><rect fill="#8B4513" height="4" width="4" x="364" y="146" /><rect fill="#8B4513" height="4" width="4" x="368" y="146" /><rect fill="#8B4513" height="4" width="4" x="340" y="150" /><rect fill="#8B4513" height="4" width="4" x="344" y="150" /><rect fill="#000000" height="4" width="4" x="348" y="150" /><rect fill="#8B4513" height="4" width="4" x="352" y="150" /><rect fill="#8B4513" height="4" width="4" x="356" y="150" /><rect fill="#000000" height="4" width="4" x="360" y="150" /><rect fill="#8B4513" height="4" width="4" x="364" y="150" /><rect fill="#8B4513" height="4" width="4" x="368" y="150" /><rect fill="#8B4513" height="4" width="4" x="340" y="154" /><rect fill="#8B4513" height="4" width="4" x="344" y="154" /><rect fill="#8B4513" height="4" width="4" x="348" y="154" /><rect fill="#8B4513" height="4" width="4" x="352" y="154" /><rect fill="#8B4513" height="4" width="4" x="356" y="154" /><rect fill="#8B4513" height="4" width="4" x="360" y="154" /><rect fill="#8B4513" height="4" width="4" x="364" y="154" /><rect fill="#8B4513" height="4" width="4" x="368" y="154" /><rect fill="#8B4513" height="4" width="4" x="344" y="158" /><rect fill="#8B4513" height="4" width="4" x="348" y="158" /><rect fill="#8B4513" height="4" width="4" x="360" y="158" /><rect fill="#8B4513" height="4" width="4" x="364" y="158" /><rect fill="#8B4513" height="4" width="4" x="340" y="162" /><rect fill="#8B4513" height="4" width="4" x="344" y="162" /><rect fill="#8B4513" height="4" width="4" x="364" y="162" /><rect fill="#8B4513" height="4" width="4" x="368" y="162" /><rect fill="#8B4513" height="4" width="4" x="340" y="166" /><rect fill="#8B4513" height="4" width="4" x="344" y="166" /><rect fill="#8B4513" height="4" width="4" x="364" y="166" /><rect fill="#8B4513" height="4" width="4" x="368" y="166" /><rect fill="#4CFF88" height="12" stroke="#007A3D" stroke-width="2" width="40" x="520" y="105" /><rect fill="#00A550" height="55" stroke="#007A3D" stroke-width="2" width="28" x="526" y="117" /><line stroke="#DDDDDD" stroke-width="3" x1="820" x2="820" y1="70" y2="150" /><polygon fill="#FF2D55" points="820,70 848,80 820,90" /><circle cx="820" cy="70" fill="#FFD700" r="4" /></svg>